<?xml version="1.0" encoding="UTF-8"?>
<svg id="Laag_1" data-name="Laag 1" xmlns="http://www.w3.org/2000/svg" viewBox="0 0 374 534">
  <defs>
    <style>
      .cls-1, .cls-2, .cls-3, .cls-4, .cls-5, .cls-6, .cls-7, .cls-8, .cls-9, .cls-10, .cls-11, .cls-12, .cls-13, .cls-14, .cls-15, .cls-16, .cls-17 {
        stroke-width: 0px;
      }

      .cls-2 {
        fill: #f4a773;
      }

      .cls-3 {
        fill: #f4b990;
      }

      .cls-4 {
        fill: #f7adc8;
      }

      .cls-5 {
        fill: #f7b081;
      }

      .cls-6 {
        fill: #9b5073;
      }

      .cls-7 {
        fill: #c99db1;
      }

      .cls-8 {
        fill: #ad7a5e;
      }

      .cls-9 {
        fill: #db9872;
      }

      .cls-10 {
        fill: #bc8264;
      }

      .cls-11 {
        fill: #c1272d;
      }

      .cls-12 {
        fill: #b55b77;
      }

      .cls-13 {
        fill: #fff;
      }

      .cls-14 {
        fill: #ed1c24;
      }

      .cls-15 {
        fill: #ff0;
      }

      .cls-16 {
        fill: #ffbb8d;
      }

      .cls-17 {
        fill: #fcc295;
      }
    </style>
  </defs>
  <path class="cls-1" d="M188.37,351.57v.42s-.25-.03-.73-.11v-.2s.25-.03.73-.11Z"/>
  <path class="cls-14" d="M188.37,253.46h0c-.24.01-.49.01-.73,0v-.02c.24.01.49.02.73.02Z"/>
  <path class="cls-8" d="M243.37,213.47v65.61c-.17,1.02-.42,2.41-.8,4.11-.05.18-.09.37-.13.56-.39,1.68-.9,3.62-1.55,5.73-.05.18-.11.37-.17.55-1.18,3.77-2.82,8.08-5.06,12.48-.18.36-.37.72-.56,1.08-.12.22-.23.44-.35.66-.12.21-.24.43-.36.65-.47.86-.98,1.73-1.51,2.59-.28.44-.55.89-.84,1.32-.2.33-.42.65-.65.97-.45.69-.93,1.37-1.43,2.04-.19.28-.4.56-.62.84-.32.42-.65.85-.98,1.26-.28.36-.58.72-.89,1.07-.06.08-.13.17-.2.25-.32.39-.66.77-1.01,1.15-.3.34-.6.67-.91,1l-.04.04-6,5.44c-.48.39-.98.76-1.48,1.1-.01.02-.02.03-.03.03-.5.37-1.01.72-1.53,1.06-.01.01-.01.02-.02.01-.53.36-1.06.7-1.61,1.03-2.11,1.28-4.37,2.43-6.79,3.44-.38.16-.77.32-1.16.46-.23.09-.47.18-.71.27-.13.05-.27.1-.41.15-.38.14-.77.28-1.16.41-.26.08-.53.17-.8.25-.99.31-2,.6-3.04.86-.65.17-1.32.32-2,.46-.68.15-1.36.28-2.06.4-.67.12-1.34.22-2.02.31-.82.12-1.65.21-2.49.3-.61.06-1.23.11-1.86.15-.06,0-.12.01-.19.01-.52.03-1.05.06-1.58.08v.04h-.02c-.24.02-.46.02-.71.02h-.01v.23c-.09,0-.17-.01-.26-.01v-69.93h.26c.24.01.48.01.72.01v-.19h.24c27.54-.42,50.21-18.87,54.16-42.86h0c.07-.39.13-.76.18-1.15.06-.41.11-.83.16-1.25.09-.83.16-1.67.21-2.53.05-.85.07-1.7.07-2.56Z"/>
  <path class="cls-5" d="M187.37,265.08v68.85c-.45-.02-.9-.04-1.33-.06-.07,0-.14,0-.2,0-.64-.03-1.27-.08-1.89-.13-.86-.07-1.7-.15-2.53-.25-.7-.08-1.38-.17-2.06-.27-.71-.1-1.41-.21-2.1-.34-.69-.12-1.37-.25-2.03-.39-1.06-.23-2.09-.48-3.1-.74-.27-.07-.55-.15-.81-.21-.54-.16-1.08-.32-1.6-.48-.24-.08-.49-.16-.72-.23-.32-.11-.63-.21-.94-.31-.08-.03-.16-.06-.24-.09-2.47-.86-4.77-1.85-6.91-2.95-.56-.28-1.1-.58-1.64-.88-.01.01-.01,0-.02-.01-.53-.3-1.05-.6-1.56-.91-.01,0-.02,0-.03-.02-.51-.3-1.02-.62-1.51-.94l-6.1-4.67-.05-.03c-.31-.28-.62-.56-.92-.86-.36-.32-.69-.65-1.03-.98-.07-.07-.14-.14-.2-.21-.32-.3-.61-.61-.91-.92-.34-.35-.67-.72-1-1.08-.21-.24-.42-.48-.63-.72-.51-.57-1-1.15-1.45-1.74-.24-.27-.45-.56-.67-.84-.29-.37-.57-.75-.85-1.13-.53-.73-1.05-1.48-1.54-2.21-.12-.19-.24-.38-.36-.56-.13-.19-.24-.38-.36-.57-.99-1.56-1.87-3.13-2.65-4.65-1.26-2.45-2.27-4.81-3.07-6.96-.06-.16-.12-.32-.17-.47-.66-1.81-1.18-3.47-1.58-4.91-.04-.16-.08-.32-.13-.48-.51-1.93-.81-3.42-.96-4.27-.02-.11-.04-.21-.05-.29-.06-.35-.08-.53-.08-.53,0,0-.36.13-1.02.4v-70.56c0,.85.02,1.69.07,2.52.05.84.13,1.67.23,2.5.05.41.1.82.16,1.23.11.76.24,1.51.4,2.25.07.36.15.72.23,1.08,5.15,22.55,28.14,39.63,55.91,40.03Z"/>
  <path class="cls-11" d="M188.37,253.46h0c-.24.01-.49.01-.73,0v-.02c.24.01.49.02.73.02Z"/>
  <path class="cls-11" d="M188.37,333.65v.32c-.25-.01-.49-.01-.73-.03v-.26c.25,0,.49,0,.73-.03Z"/>
  <path class="cls-17" d="M76.37,303.89v230.58H9.87v-162.5s3.5-38.5,35.5-53.5c9.08-4.25,20.01-9.39,31-14.58Z"/>
  <path class="cls-1" d="M188.37,333.65v.32c-.25-.01-.49-.01-.73-.03v-.26c.25,0,.49,0,.73-.03Z"/>
  <path class="cls-15" d="M188.37,351.57v.42s-.25-.03-.73-.11v-.2s.25-.03.73-.11Z"/>
  <path class="cls-11" d="M188.37,253.46h0c-.24.01-.49.01-.73,0v-.02c.24.01.49.02.73.02Z"/>
  <path class="cls-17" d="M366.14,371.64v162.83h-66.5v-230.84c10.99,5.19,21.92,10.32,31,14.57,32,14.98,35.5,53.44,35.5,53.44Z"/>
  <path class="cls-1" d="M143.13,307.75c-.53-.86-1.04-1.73-1.51-2.59.48.86.99,1.73,1.51,2.59Z"/>
  <path class="cls-1" d="M234.39,304.9c-.47.86-.98,1.73-1.51,2.59.52-.86,1.03-1.73,1.51-2.59Z"/>
  <path class="cls-9" d="M243.7,75.89v139.85c0,.99-.02,1.97-.07,2.95s-.12,1.95-.22,2.91c-.05.48-.1.96-.16,1.44-.05.44-.11.87-.18,1.31h0c-4.04,27.61-27.23,48.84-55.39,49.32h-.25v.21c-.24,0-.49-.01-.73-.02v.02h-.27V75.89h57.27Z"/>
  <path class="cls-17" d="M186.43,75.89v197.99c-27.28-.47-49.87-20.44-54.93-46.79-.08-.42-.16-.84-.23-1.26-.15-.87-.28-1.75-.39-2.63-.06-.48-.11-.96-.16-1.44-.09-.97-.17-1.94-.22-2.92-.05-.97-.07-1.96-.07-2.95V75.89h56Z"/>
  <g>
    <path class="cls-4" d="M130.15,136.89l-7.52-7.75c-3.35-3.45-8.78-3.45-12.13,0h0c-3.35,3.45-3.35,9.05,0,12.5l5.31,5.47,14.63,15.08-.28-25.29Z"/>
    <path class="cls-7" d="M130.43,190h-13c-7.18,0-13-6-13-13.4v-5.19c0-2.31.58-4.57,1.68-6.58l9.69-17.72,14.63,15.08v27.81Z"/>
    <path class="cls-1" d="M126.99,191.63l-4.86,5.01c-.93.96-2.44.96-3.37,0l-4.86-5.01c-.93-.96-.93-2.52,0-3.48l4.86-5.01c.93-.96,2.44-.96,3.37,0l4.86,5.01c.93.96.93,2.52,0,3.48Z"/>
    <path class="cls-1" d="M121.21,152.68l-5.77,10.86c-1.17,2.2-1.78,4.67-1.78,7.18v.85c0,1.58,1.24,2.86,2.78,2.86h0c1.53,0,2.78-1.28,2.78-2.86v-.45c0-2.65.68-5.25,1.98-7.54l3.91-6.89-3.89-4.01h0Z"/>
    <g>
      <path class="cls-4" d="M243.92,136.74l7.52-7.75c3.35-3.45,8.78-3.45,12.13,0h0c3.35,3.45,3.35,9.05,0,12.5l-5.31,5.47-14.63,15.08.28-25.29Z"/>
      <path class="cls-7" d="M243.64,189.84h13c7.18,0,13-6,13-13.4v-5.19c0-2.31-.58-4.57-1.68-6.58l-9.69-17.72-14.63,15.08v27.81Z"/>
      <path class="cls-1" d="M247.08,191.47l4.86,5.01c.93.96,2.44.96,3.37,0l4.86-5.01c.93-.96.93-2.52,0-3.48l-4.86-5.01c-.93-.96-2.44-.96-3.37,0l-4.86,5.01c-.93.96-.93,2.52,0,3.48Z"/>
      <path class="cls-1" d="M252.86,152.52l5.77,10.86c1.17,2.2,1.78,4.67,1.78,7.18v.85c0,1.58-1.24,2.86-2.78,2.86h0c-1.53,0-2.78-1.28-2.78-2.86v-.45c0-2.65-.68-5.25-1.98-7.54l-3.91-6.89,3.89-4.01h0Z"/>
    </g>
  </g>
  <path class="cls-2" d="M186.43,148.89v62.65c-1.92,0-3.8-.38-5.54-1.11-1.5-.62-2.9-1.5-4.13-2.59-.19-.18-.38-.36-.57-.55l-7.19-7.18c-.86-.86-1.51-1.85-1.96-2.91-1.05-2.54-.93-5.5.5-8,.59-1.03,1.42-1.85,2.4-2.42.99-.57,2.12-.89,3.3-.89h5.19v-37h8Z"/>
  <path class="cls-1" d="M177.43,199.8v6.18c0,.71-.25,1.36-.67,1.86-.19-.18-.38-.36-.57-.55l-7.19-7.18c-.86-.86-1.51-1.85-1.96-2.91.39-.2.83-.31,1.3-.31h6.18c1.61,0,2.91,1.3,2.91,2.91Z"/>
  <path class="cls-16" d="M181.43,148.89h5v57h0c-2.76,0-5-2.24-5-5v-52h0Z"/>
  <path class="cls-2" d="M186.43,148.89v62.65c1.92,0,3.8-.38,5.54-1.11,1.5-.62,2.9-1.5,4.13-2.59.19-.18.38-.36.57-.55l7.19-7.18c.86-.86,1.51-1.85,1.96-2.91,1.05-2.54.93-5.5-.5-8-.59-1.03-1.42-1.85-2.4-2.42-.99-.57-2.12-.89-3.3-.89h-5.19v-37s-8,0-8,0Z"/>
  <path class="cls-1" d="M195.43,199.8v6.18c0,.71.25,1.36.67,1.86.19-.18.38-.36.57-.55l7.19-7.18c.86-.86,1.51-1.85,1.96-2.91-.39-.2-.83-.31-1.3-.31h-6.18c-1.61,0-2.91,1.3-2.91,2.91Z"/>
  <path class="cls-16" d="M191.43,148.89h0v57h-5v-52c0-2.76,2.24-5,5-5Z" transform="translate(377.86 354.79) rotate(180)"/>
  <path class="cls-6" d="M200.43,238.49c0,.86-.32,1.74-.95,2.4-.62.64-1.45,1-2.32,1h-22.49c-.92,0-1.81-.36-2.46-1-.68-.66-1.02-1.54-1.02-2.4s.34-1.74,1.02-2.4l4.2-4.11c2.31-2.26,6.05-2.26,8.36,0l1.51,1.48,1.41-1.48c2.17-2.26,5.68-2.26,7.84,0l3.95,4.11c.63.66.95,1.53.95,2.4Z"/>
  <path class="cls-12" d="M192.12,247.89c.7,0,1.25.63,1.12,1.32-.62,3.24-3.46,5.68-6.88,5.68s-6.26-2.44-6.88-5.68c-.13-.69.42-1.32,1.12-1.32h11.52Z"/>
  <path class="cls-2" d="M178.41,142.89h-47.98v-16c21.91-2.39,34.14.46,40.92,4.75,4.11,2.6,6.53,6.78,7.06,11.25Z"/>
  <path class="cls-2" d="M177.99,148.89c-.47,1.77-1.26,3.49-2.37,5.08-21.18,30.32-45.19,9.45-45.19,9.45v-9.45c3.47,5.86,11.12,9.92,20,9.92,11.27,0,20.57-6.55,21.85-15h5.71Z"/>
  <path class="cls-1" d="M177.99,148.89h-47.56v-6h47.98c.24,1.98.11,4.02-.42,6Z"/>
  <path class="cls-1" d="M161.42,148.89c-.26,5.57-4.86,10-10.49,10s-10.23-4.43-10.49-10h20.98Z"/>
  <path class="cls-13" d="M172.28,148.89c-1.28,8.45-10.58,15-21.85,15-8.88,0-16.53-4.06-20-9.92v-5.08h10.01c.26,5.57,4.86,10,10.49,10s10.23-4.43,10.49-10h10.86Z"/>
  <path class="cls-10" d="M195.32,142.62h47.98s0-16,0-16c-21.91-2.39-34.14.46-40.92,4.75-4.11,2.6-6.53,6.78-7.06,11.25Z"/>
  <path class="cls-10" d="M195.74,148.62c.47,1.77,1.26,3.49,2.37,5.08,21.18,30.32,45.19,9.45,45.19,9.45v-9.45c-3.47,5.86-11.12,9.92-20,9.92-11.27,0-20.57-6.55-21.85-15h-5.71Z"/>
  <path class="cls-1" d="M195.74,148.62h47.56s0-6,0-6h-47.98c-.24,1.98-.11,4.02.42,6Z"/>
  <path class="cls-1" d="M212.31,148.62c.26,5.57,4.86,10,10.49,10,5.63,0,10.23-4.43,10.49-10h-20.98Z"/>
  <path class="cls-13" d="M201.45,148.62c1.28,8.45,10.58,15,21.85,15,8.88,0,16.53-4.06,20-9.92v-5.08s-10.01,0-10.01,0c-.26,5.57-4.86,10-10.49,10-5.63,0-10.23-4.43-10.49-10h-10.86Z"/>
  <path class="cls-3" d="M299.37,303.5c-10.49-4.93-21.04-9.9-30.09-14.16-3.06-1.45-5.96-2.82-8.63-4.07-7.91-3.74-13.77-6.5-16.01-7.56-.65-.31-1-.47-1-.47,0,0-.02.21-.08.62-.01.1-.03.22-.05.34-.04.25-.08.55-.14.88-.17,1.02-.42,2.41-.8,4.11-.05.18-.09.37-.13.56-.39,1.68-.9,3.62-1.55,5.73-.05.18-.11.37-.17.55-1.18,3.77-2.82,8.08-5.06,12.48-.18.36-.37.72-.56,1.08-.12.22-.23.44-.35.66-.12.21-.24.43-.36.65-.47.86-.98,1.73-1.51,2.59-.28.44-.55.89-.84,1.32-.2.33-.42.65-.65.97-.45.69-.93,1.37-1.43,2.04-.19.28-.4.56-.62.84-.32.42-.65.85-.98,1.26-.28.36-.58.72-.89,1.07-.06.08-.13.17-.2.25-.32.39-.66.77-1.01,1.15-.3.34-.6.67-.91,1l-.04.04-6,5.44c-.48.39-.98.76-1.48,1.1-.01.02-.02.03-.03.03-.5.37-1.01.72-1.53,1.06-.01.01-.01.02-.02.01-.53.36-1.06.7-1.61,1.03-2.11,1.28-4.37,2.43-6.79,3.44-.38.16-.77.32-1.16.46-.23.09-.47.18-.71.27-.13.05-.27.1-.41.15-.38.14-.77.28-1.16.41-.26.08-.53.17-.8.25-.99.31-2,.6-3.04.86-.65.17-1.32.32-2,.46-.68.15-1.36.28-2.06.4-.67.12-1.34.22-2.02.31-.82.12-1.65.21-2.49.3-.61.06-1.23.11-1.86.15-.06,0-.12.01-.19.01-.52.03-1.05.06-1.58.08v.32c-.25-.01-.49-.01-.73-.03h-.01c-.09,0-.17-.01-.26-.01-.45-.02-.9-.04-1.33-.06-.07,0-.14,0-.2,0-.64-.03-1.27-.08-1.89-.13-.86-.07-1.7-.15-2.53-.25-.7-.08-1.38-.17-2.06-.27-.71-.1-1.41-.21-2.1-.34-.69-.12-1.37-.25-2.03-.39-1.06-.23-2.09-.48-3.1-.74-.27-.07-.55-.15-.81-.21-.54-.16-1.08-.32-1.6-.48-.24-.08-.49-.16-.72-.23-.32-.11-.63-.21-.94-.31-.08-.03-.16-.06-.24-.09-2.47-.86-4.77-1.85-6.91-2.95-.56-.28-1.1-.58-1.64-.88-.01.01-.01,0-.02-.01-.53-.3-1.05-.6-1.56-.91-.01,0-.02,0-.03-.02-.51-.3-1.02-.62-1.51-.94l-6.1-4.67-.05-.03c-.31-.28-.62-.56-.92-.86-.36-.32-.69-.65-1.03-.98-.07-.07-.14-.14-.2-.21-.32-.3-.61-.61-.91-.92-.34-.35-.67-.72-1-1.08-.21-.24-.42-.48-.63-.72-.51-.57-1-1.15-1.45-1.74-.24-.27-.45-.56-.67-.84-.29-.37-.57-.75-.85-1.13-.53-.73-1.05-1.48-1.54-2.21-.12-.19-.24-.38-.36-.56-.13-.19-.24-.38-.36-.57-.99-1.56-1.87-3.13-2.65-4.65-1.26-2.45-2.27-4.81-3.07-6.96-.06-.16-.12-.32-.17-.47-.66-1.81-1.18-3.47-1.58-4.91-.04-.16-.08-.32-.13-.48-.51-1.93-.81-3.42-.96-4.27-.02-.11-.04-.21-.05-.29-.06-.35-.08-.53-.08-.53,0,0-.36.13-1.02.4v-7.61c-2.72,1.28-8.08,3.81-15.01,7.09-2.74,1.29-5.73,2.7-8.9,4.19-9.07,4.28-19.61,9.25-30.09,14.19v230.58h223.27v-230.84c-.09-.04-.18-.08-.27-.13ZM188.37,351.99s-.25-.03-.73-.11v-.2s.25-.03.73-.11v.42Z"/>
  <path class="cls-17" d="M186.37,59.47v17h-56.06c0-9.39,7.61-17,17-17h39.06Z"/>
  <path class="cls-9" d="M243.31,76.47h-56.94v-17h39.94c4.7,0,8.94,1.9,12.02,4.98,3.08,3.08,4.98,7.32,4.98,12.02Z"/>
</svg>