<?xml version="1.0" encoding="UTF-8"?>
<svg id="Laag_1" data-name="Laag 1" xmlns="http://www.w3.org/2000/svg" viewBox="0 0 356.27 499.86">
  <defs>
    <style>
      .cls-1 {
        stroke-width: 0px;
      }
    </style>
  </defs>
  <rect class="cls-1" x="120.13" y="12.25" width="113.92" height="29"/>
  <polygon class="cls-1" points="120.13 12.25 120.13 .1 132.51 12.38 132.51 .1 144.78 12.26 120.13 12.25"/>
  <polygon class="cls-1" points="144.45 13.11 144.45 0 156.84 13.25 156.84 0 169.1 13.12 144.45 13.11"/>
  <polygon class="cls-1" points="234.13 12.55 234.13 .39 221.96 12.68 221.96 .39 209.91 12.56 234.13 12.55"/>
  <polygon class="cls-1" points="210.24 13.4 210.24 .3 197.86 13.55 197.86 .3 185.59 13.42 210.24 13.4"/>
  <polygon class="cls-1" points="168.52 12.25 168.52 .1 177.75 12.38 186.67 0 186.67 12.25 168.52 12.25"/>
</svg>