<?xml version="1.0" encoding="UTF-8"?>
<svg id="Laag_1" data-name="Laag 1" xmlns="http://www.w3.org/2000/svg" viewBox="0 0 362 500.26">
  <defs>
    <style>
      .cls-1 {
        stroke: #960611;
        stroke-miterlimit: 10;
        stroke-width: 5.03px;
      }

      .cls-1, .cls-2 {
        fill: #fff;
      }

      .cls-3, .cls-4, .cls-5, .cls-6, .cls-7, .cls-2, .cls-8, .cls-9, .cls-10 {
        stroke-width: 0px;
      }

      .cls-4 {
        fill: #960611;
      }

      .cls-5 {
        fill: #c68630;
      }

      .cls-6 {
        fill: #d69230;
      }

      .cls-7 {
        fill: #820615;
      }

      .cls-8 {
        fill: #e59f2e;
      }

      .cls-9 {
        fill: #fcee21;
      }

      .cls-10 {
        fill: #6b0517;
      }
    </style>
  </defs>
  <path class="cls-4" d="M293.71,266.14v234.01h-111.92v-185.14c.1.02.19.04.27.05.48.08.73.11.73.11v-.43c2.13-.33,8.73-1.53,17.15-4.48,9.01-3.15,20.11-8.31,30-16.58,12.09-10.09,22.38-24.81,24.91-46.14,2.66,1.27,5.55,2.66,8.6,4.13,9.02,4.32,19.54,9.36,30,14.35.09.05.18.09.27.13Z"/>
  <path class="cls-9" d="M71.13,266.41v207.39H4.84v-138.37s3.49-39.03,35.39-54.23c9.05-4.31,19.95-9.52,30.9-14.78Z"/>
  <path class="cls-6" d="M71.13,266.41v207.39H4.84v-138.37s3.49-39.03,35.39-54.23c9.05-4.31,19.95-9.52,30.9-14.78Z"/>
  <path class="cls-9" d="M360,335.08v138.71h-66.29v-207.65c10.96,5.26,21.85,10.46,30.9,14.77,31.9,15.19,35.39,54.17,35.39,54.17Z"/>
  <path class="cls-7" d="M360,335.08v138.71h-66.29v-207.65c10.96,5.26,21.85,10.46,30.9,14.77,31.9,15.19,35.39,54.17,35.39,54.17Z"/>
  <rect class="cls-5" x="4.84" y="473.79" width="66.29" height="26.36"/>
  <rect class="cls-10" x="293.71" y="473.79" width="66.29" height="26.36"/>
  <path class="cls-3" d="M254.84,247.53c-2.53,21.34-12.82,36.06-24.91,46.14-9.89,8.27-20.98,13.43-30,16.58-8.41,2.95-15.01,4.15-17.15,4.48-.48.08-.73.11-.73.11v.2c-.08-.01-.17-.03-.27-.05-2.57-.42-9.88-1.8-18.91-5.17-9.26-3.44-20.34-8.95-30-17.63-11.2-10.02-20.49-24.27-22.88-44.43,6.91-3.32,12.25-5.89,14.96-7.19v7.71c.66-.27,1.02-.41,1.02-.41,0,0,.02.18.08.54,0,.08.03.18.05.29.15.86.45,2.37.96,4.33.05.16.09.32.13.49.4,1.46.92,3.14,1.58,4.98.05.15.11.31.17.48.8,2.18,1.8,4.57,3.06,7.06.78,1.54,1.65,3.13,2.64,4.71.12.19.23.39.36.58.12.18.24.38.36.57.49.74,1.01,1.5,1.54,2.24.28.39.56.77.85,1.15.22.28.43.58.67.85.45.6.94,1.19,1.45,1.76.21.24.42.49.63.73.33.36.66.74,1,1.09.3.31.59.63.91.93.06.07.13.14.2.21.34.33.67.67,1.03.99.3.3.61.59.92.87l.05.03,6.08,4.73c.49.32,1,.65,1.51.95,0,.02.02.02.03.02.51.31,1.03.62,1.56.92,0,.01,0,.02.02.01.54.3,1.08.61,1.63.89,2.13,1.12,4.43,2.12,6.89,2.99.08.03.16.06.24.09.31.1.62.2.94.31.23.07.48.15.72.23.52.16,1.06.32,1.59.49.26.06.54.14.81.21,1.01.26,2.03.52,3.09.75.66.14,1.34.27,2.02.4.69.13,1.39.24,2.09.34.68.1,1.36.19,2.05.27.83.1,1.66.18,2.52.25.62.05,1.25.1,1.88.13.06,0,.13.01.2.01.43.02.88.04,1.33.06.09,0,.18.01.27.01.24.02.48.02.73.03v-.32c.53-.02,1.06-.05,1.58-.08.07,0,.13-.01.19-.01.63-.04,1.25-.09,1.85-.15.84-.09,1.66-.18,2.48-.3.68-.09,1.35-.19,2.01-.31.7-.12,1.38-.25,2.05-.41.68-.14,1.35-.29,1.99-.47,1.04-.26,2.04-.56,3.03-.87.27-.08.54-.17.8-.25.39-.13.78-.27,1.16-.42.14-.05.28-.1.41-.15.24-.09.48-.18.71-.27.39-.14.78-.3,1.16-.47,2.41-1.02,4.67-2.19,6.77-3.49.55-.33,1.08-.68,1.6-1.04,0,.01,0,0,.02-.01.52-.34,1.03-.7,1.53-1.07,0,0,.02-.01.03-.03.5-.34,1-.72,1.48-1.12l5.98-5.51.04-.04c.31-.33.61-.67.91-1.01.35-.39.69-.77,1.01-1.17.07-.08.14-.17.2-.25.31-.35.61-.72.89-1.08.33-.42.66-.85.98-1.28.22-.28.43-.57.62-.85.5-.68.98-1.37,1.43-2.07.23-.32.45-.65.65-.98.29-.44.56-.89.84-1.34.53-.87,1.04-1.75,1.51-2.63.12-.22.24-.45.36-.66.12-.22.23-.45.35-.67.19-.36.38-.73.56-1.09,2.23-4.46,3.87-8.83,5.04-12.65.06-.18.12-.38.17-.56.65-2.14,1.16-4.11,1.55-5.81.04-.19.08-.39.13-.57.5-2.29.79-4.04.94-5.06.02-.12.04-.24.05-.34.06-.42.08-.63.08-.63,0,0,.35.16,1,.48,2.23,1.07,8.07,3.87,15.96,7.66Z"/>
  <path class="cls-8" d="M181.79,315v185.14h-110.65v-233.74c10.45-5.01,20.95-10.05,30-14.38,3.16-1.51,6.14-2.94,8.87-4.25,2.39,20.16,11.68,34.42,22.88,44.43,9.66,8.68,20.74,14.19,30,17.63,9.03,3.37,16.34,4.75,18.91,5.17Z"/>
  <polygon class="cls-1" points="112.28 364.36 108.74 366.65 114.88 378.47 140.93 361.65 138.71 357.37 116.35 371.8 112.28 364.36"/>
  <rect class="cls-2" x="227.64" y="342.2" width="34.89" height="50.49" rx="17.45" ry="17.45"/>
</svg>