<?xml version="1.0" encoding="UTF-8"?>
<svg id="Laag_1" data-name="Laag 1" xmlns="http://www.w3.org/2000/svg" viewBox="0 0 362 500.26">
  <defs>
    <style>
      .cls-1 {
        stroke: #fff;
        stroke-miterlimit: 10;
        stroke-width: 5.08px;
      }

      .cls-1, .cls-2 {
        fill: #fffaf8;
      }

      .cls-3 {
        opacity: .17;
      }

      .cls-3, .cls-4, .cls-5, .cls-2, .cls-6, .cls-7, .cls-8 {
        stroke-width: 0px;
      }

      .cls-5 {
        fill: #ed1c24;
      }

      .cls-6 {
        fill: #ff0;
      }

      .cls-7 {
        fill: #efefef;
      }

      .cls-8 {
        fill: #fcee21;
      }
    </style>
  </defs>
  <path class="cls-4" d="M181.37,314.77v.43s-.25-.03-.74-.11v-.2s.25-.03.74-.11Z"/>
  <path class="cls-5" d="M294.43,266.15v234.11H67.57v-233.85c10.65-5.01,21.36-10.05,30.57-14.39,3.22-1.51,6.26-2.94,9.04-4.25,2.44,20.17,11.91,34.43,23.32,44.45,9.85,8.68,21.13,14.2,30.57,17.64,9.55,3.49,17.21,4.86,19.55,5.22.49.08.74.11.74.11v-.43c2.17-.33,8.9-1.53,17.48-4.48,9.19-3.15,20.49-8.32,30.57-16.59,12.33-10.09,22.81-24.82,25.39-46.17,2.71,1.27,5.66,2.66,8.77,4.13,9.2,4.32,19.92,9.36,30.57,14.36.09.05.18.09.27.13Z"/>
  <path class="cls-8" d="M67.57,266.42v207.48H0v-138.43s3.56-39.05,36.07-54.26c9.23-4.31,20.33-9.52,31.5-14.79Z"/>
  <path class="cls-2" d="M67.57,266.42v207.48H0v-138.43s3.56-39.05,36.07-54.26c9.23-4.31,20.33-9.52,31.5-14.79Z"/>
  <path class="cls-6" d="M181.37,314.77v.43s-.25-.03-.74-.11v-.2s.25-.03.74-.11Z"/>
  <path class="cls-8" d="M362,335.13v138.77h-67.57v-207.74c11.17,5.26,22.27,10.47,31.5,14.78,32.51,15.19,36.07,54.2,36.07,54.2Z"/>
  <path class="cls-2" d="M362,335.13v138.77h-67.57v-207.74c11.17,5.26,22.27,10.47,31.5,14.78,32.51,15.19,36.07,54.2,36.07,54.2Z"/>
  <rect class="cls-7" y="473.9" width="67.57" height="26.37"/>
  <rect class="cls-7" x="294.43" y="473.9" width="67.57" height="26.37"/>
  <path class="cls-2" d="M254.81,247.53c-2.58,21.35-13.07,36.07-25.39,46.17-10.08,8.28-21.39,13.44-30.57,16.59-8.58,2.95-15.3,4.15-17.48,4.48-.49.08-.74.11-.74.11v.2c-2.34-.37-10-1.73-19.55-5.22-9.44-3.44-20.73-8.96-30.57-17.64-11.41-10.02-20.88-24.28-23.32-44.45,8.04-3.79,13.99-6.6,16.27-7.68.66-.31,1.02-.48,1.02-.48,0,0,.02.21.08.63.01.1.03.22.05.34.15,1.01.45,2.78.96,5.07.05.18.09.38.13.57.4,1.7.91,3.67,1.57,5.81.05.18.11.38.17.56.8,2.56,1.81,5.35,3.07,8.26.77,1.81,1.66,3.66,2.64,5.52.12.22.23.45.36.67.12.21.24.44.37.66.48.87,1,1.75,1.53,2.63.28.45.56.9.85,1.34.2.33.43.67.66.99.46.7.94,1.39,1.45,2.07.19.28.41.57.63.85.33.43.66.86,1,1.28.28.37.59.73.9,1.09.06.08.13.17.2.25.33.4.67.78,1.03,1.17.3.34.61.68.92,1.01l.04.04,6.1,5.53c.49.4,1,.77,1.5,1.12.01.02.02.03.03.03.51.38,1.03.73,1.55,1.08.01.01.01.02.02.01.54.37,1.08.71,1.64,1.04,2.14,1.3,4.44,2.47,6.9,3.5.08.03.16.07.24.1.3.12.62.24.93.37.23.09.48.18.72.27.52.19,1.06.39,1.6.57.26.08.54.17.81.25,1.01.31,2.03.61,3.09.87.66.17,1.34.32,2.03.47.69.15,1.38.28,2.09.41.68.12,1.36.22,2.05.31.83.12,1.68.21,2.53.3.62.06,1.25.11,1.89.15.06,0,.12.01.19.01.53.03,1.07.06,1.61.08.24.02.49.02.74.03v-.32c.54-.02,1.08-.05,1.61-.08.07,0,.13-.01.19-.01.64-.04,1.27-.09,1.89-.15.85-.09,1.7-.18,2.53-.3.69-.09,1.37-.19,2.05-.31.71-.12,1.4-.25,2.09-.41.69-.14,1.37-.29,2.03-.47,1.06-.26,2.08-.56,3.09-.87.27-.08.55-.17.81-.25.4-.13.79-.27,1.18-.42.14-.05.28-.1.42-.15.24-.09.49-.18.72-.27.4-.14.79-.3,1.18-.47,2.46-1.02,4.76-2.19,6.9-3.49.56-.33,1.1-.68,1.64-1.04.01.01.01,0,.02-.01.53-.34,1.05-.7,1.55-1.08.01,0,.02-.01.03-.03.51-.34,1.02-.72,1.5-1.12l6.1-5.52.04-.04c.31-.33.62-.67.92-1.01.36-.39.7-.77,1.03-1.17.07-.08.14-.17.2-.25.31-.35.62-.72.9-1.09.34-.42.67-.85,1-1.28.22-.28.44-.57.63-.85.51-.68,1-1.37,1.45-2.07.23-.32.46-.65.66-.98.29-.44.57-.89.85-1.34.54-.87,1.06-1.75,1.53-2.63.12-.22.24-.45.37-.66.12-.22.23-.45.36-.67.19-.37.39-.73.57-1.1,2.28-4.46,3.94-8.83,5.14-12.66.06-.18.12-.38.17-.56.66-2.14,1.18-4.11,1.57-5.81.04-.19.08-.39.13-.57.51-2.29.8-4.05.96-5.06.02-.12.04-.24.05-.34.06-.42.08-.63.08-.63,0,0,.36.16,1.02.48,2.28,1.08,8.23,3.87,16.27,7.67Z"/>
  <polygon class="cls-2" points="170.11 312.75 180.35 333.93 190.75 312.75 170.11 312.75"/>
  <path class="cls-3" d="M268.75,362.34c0,3.64-1.45,6.94-3.8,9.32-2.36,2.38-5.61,3.86-9.2,3.86h-25.4c-4.77,0-8.95-2.61-11.21-6.51-1.14-1.96-1.79-4.24-1.79-6.68,0-3.64,1.46-6.94,3.81-9.32s5.6-3.86,9.19-3.86h25.4c4.65,0,8.72,2.47,11.02,6.18,1.25,2.03,1.98,4.43,1.98,7.01Z"/>
  <path class="cls-5" d="M265.32,355.87l-44.68,12.63c-1.07-1.8-1.68-3.91-1.68-6.16,0-3.36,1.36-6.41,3.57-8.61,2.21-2.2,5.25-3.56,8.62-3.56h23.83c4.36,0,8.17,2.28,10.33,5.7Z"/>
  <path class="cls-7" d="M267.18,362.34c0,3.36-1.36,6.41-3.57,8.61-2.21,2.2-5.25,3.56-8.62,3.56h-23.83c-4.48,0-8.4-2.41-10.51-6.01l44.68-12.63c1.18,1.88,1.86,4.09,1.86,6.47Z"/>
  <polygon class="cls-1" points="109.26 359.98 105.66 362.27 111.91 374.09 138.46 357.27 136.2 352.99 113.41 367.42 109.26 359.98"/>
</svg>