<?xml version="1.0" encoding="UTF-8"?>
<svg id="Laag_1" data-name="Laag 1" xmlns="http://www.w3.org/2000/svg" viewBox="0 0 374 534">
  <defs>
    <style>
      .cls-1 {
        stroke: #000;
        stroke-miterlimit: 10;
        stroke-width: 1.01px;
      }

      .cls-1, .cls-2 {
        fill: #fcee21;
      }

      .cls-3, .cls-4, .cls-2 {
        stroke-width: 0px;
      }

      .cls-4 {
        fill: #efd93f;
      }
    </style>
  </defs>
  <path class="cls-3" d="M259.24,282.48c-2.56,21.25-12.99,35.9-25.24,45.94-10.02,8.24-21.26,13.37-30.39,16.51-8.52,2.94-15.21,4.13-17.37,4.46-.48.08-.74.11-.74.11v.2c-2.32-.36-9.94-1.73-19.43-5.2-9.38-3.42-20.6-8.91-30.39-17.55-11.34-9.97-20.75-24.16-23.18-44.24,7.99-3.77,13.91-6.57,16.17-7.64.66-.31,1.01-.47,1.01-.47,0,0,.02.21.08.63.01.1.03.22.05.34.15,1.01.44,2.77.95,5.05.05.18.09.37.13.57.39,1.7.91,3.65,1.57,5.78.05.18.11.37.17.56.8,2.54,1.8,5.33,3.05,8.22.77,1.8,1.65,3.64,2.63,5.49.12.22.23.44.35.67.12.21.24.43.36.66.47.87.99,1.75,1.52,2.61.28.44.56.9.85,1.33.2.33.42.67.66.99.45.7.94,1.38,1.44,2.06.19.28.4.57.63.85.32.42.66.86.99,1.27.28.36.59.73.9,1.08.06.08.13.17.2.25.32.39.67.78,1.02,1.16.3.34.61.68.92,1.01l.04.04,6.06,5.5c.48.39.99.77,1.49,1.11.01.02.02.03.03.03.5.37,1.02.73,1.54,1.07.01.01.01.02.02.01.54.36,1.07.71,1.63,1.04,2.13,1.29,4.41,2.46,6.86,3.48.08.03.16.07.24.1.3.12.62.24.93.36.23.09.47.18.72.27.52.19,1.05.38,1.59.57.26.08.54.17.81.25,1,.31,2.02.61,3.07.87.66.17,1.33.32,2.02.46.69.15,1.37.28,2.08.4.68.12,1.35.22,2.04.31.83.12,1.67.21,2.51.3.62.06,1.24.11,1.88.15.06,0,.12.01.19.01.53.03,1.06.06,1.6.08.24.02.48.02.74.03v-.32c.54-.02,1.07-.05,1.6-.08.07,0,.13-.01.19-.01.64-.04,1.26-.09,1.88-.15.85-.09,1.69-.18,2.51-.3.69-.09,1.36-.19,2.04-.31.71-.12,1.39-.25,2.08-.4.69-.14,1.36-.29,2.02-.46,1.05-.26,2.07-.56,3.07-.87.27-.08.55-.17.81-.25.39-.13.79-.27,1.17-.41.14-.05.28-.1.41-.15.24-.09.48-.18.72-.27.39-.14.79-.3,1.17-.46,2.44-1.02,4.73-2.18,6.86-3.47.56-.33,1.09-.68,1.63-1.04.01.01.01,0,.02-.01.53-.34,1.04-.7,1.54-1.07.01,0,.02-.01.03-.03.5-.34,1.01-.72,1.49-1.11l6.06-5.49.04-.04c.31-.33.62-.67.92-1.01.35-.38.7-.77,1.02-1.16.07-.08.14-.17.2-.25.31-.35.62-.72.9-1.08.33-.41.67-.85.99-1.27.22-.28.43-.57.63-.85.5-.68.99-1.36,1.44-2.06.23-.32.45-.65.66-.98.29-.43.57-.89.85-1.33.54-.87,1.05-1.75,1.52-2.61.12-.22.24-.44.36-.66.12-.22.23-.44.35-.67.19-.36.38-.73.57-1.09,2.26-4.44,3.92-8.79,5.11-12.6.06-.18.12-.37.17-.56.66-2.13,1.17-4.09,1.57-5.78.04-.19.08-.38.13-.57.5-2.28.8-4.03.95-5.04.02-.12.04-.24.05-.34.06-.41.08-.63.08-.63,0,0,.35.16,1.01.47,2.26,1.07,8.18,3.86,16.17,7.63Z"/>
  <g>
    <path class="cls-2" d="M298.61,301.01v232.99H73.15v-232.72c10.58-4.99,21.23-10,30.39-14.32,3.2-1.5,6.22-2.93,8.99-4.23,2.42,20.08,11.84,34.27,23.18,44.24,9.79,8.64,21,14.13,30.39,17.55,9.49,3.47,17.11,4.83,19.43,5.2.48.08.74.11.74.11v-.42c2.16-.33,8.85-1.52,17.37-4.46,9.13-3.14,20.37-8.28,30.39-16.51,12.25-10.04,22.67-24.7,25.24-45.94,2.7,1.26,5.62,2.64,8.71,4.11,9.14,4.3,19.79,9.32,30.39,14.29.09.05.18.09.27.13Z"/>
    <path class="cls-2" d="M73.15,301.28v206.48H6v-137.77s3.53-38.86,35.85-54c9.17-4.29,20.21-9.48,31.3-14.72Z"/>
    <path class="cls-4" d="M73.15,301.28v206.48H6v-137.77s3.53-38.86,35.85-54c9.17-4.29,20.21-9.48,31.3-14.72Z"/>
    <path class="cls-2" d="M365.77,369.66v138.1h-67.15v-206.75c11.1,5.24,22.14,10.42,31.3,14.71,32.31,15.12,35.85,53.94,35.85,53.94Z"/>
    <path class="cls-4" d="M365.77,369.66v138.1h-67.15v-206.75c11.1,5.24,22.14,10.42,31.3,14.71,32.31,15.12,35.85,53.94,35.85,53.94Z"/>
    <rect class="cls-3" x="6" y="507.76" width="67.15" height="26.24"/>
    <rect class="cls-3" x="298.34" y="507.76" width="67.66" height="26.24"/>
    <path class="cls-3" d="M103.54,286.95v247.05h-30.39v-232.72c10.58-4.99,21.23-10,30.39-14.32Z"/>
    <path class="cls-3" d="M135.7,326.96c9.79,6.79,21,11.1,30.39,13.79v148.84h-30.39v-162.63Z"/>
    <path class="cls-3" d="M203.62,341.08c9.13-2.47,20.37-6.5,30.39-12.97v161.48h-30.39v-148.51Z"/>
    <path class="cls-3" d="M298.34,300.88v233.12h-30.39v-247.41c9.14,4.3,19.79,9.32,30.39,14.29Z"/>
    <ellipse class="cls-1" cx="234.47" cy="411.12" rx="21.46" ry="21.45"/>
    <polygon class="cls-1" points="126.74 403.38 119.02 399.76 117.09 409.9 125.09 409.9 122.88 413.76 125.54 415.45 126.74 412.9 133.75 418.11 133.02 421.97 134.7 421.97 136.65 417.62 151.13 409.66 148.72 406.28 138.34 412.8 134.11 407.7 126.74 403.38"/>
  </g>
</svg>