<?xml version="1.0" encoding="UTF-8"?>
<svg id="Laag_1" data-name="Laag 1" xmlns="http://www.w3.org/2000/svg" viewBox="0 0 374 534">
  <defs>
    <style>
      .cls-1 {
        stroke-width: 0px;
      }
    </style>
  </defs>
  <path class="cls-1" d="M129.35,130.36v-7.18h17.47c8.51,0,16.89,1.94,24.5,5.66l3.12,1.53-4.1,6-6.28-2.23c-3.31-1.18-6.78-1.89-10.29-2.13l-24.41-1.64Z"/>
  <path class="cls-1" d="M216.74,123.96s.06-.01.09-.02l-2.64,8.78c-.49.12-.99.24-1.49.38-.3.08-.59.17-.89.26l-.13.04c-.47.14-.93.3-1.39.46l-6.27,2.23-4.1-6,3.11-1.53c4.34-2.13,8.97-3.68,13.71-4.6Z"/>
  <path class="cls-1" d="M245,122.91v7.18l-24.42,1.64c-.24.02-.48.04-.72.06-.19.02-.39.04-.58.06l2.45-8.64c1.05-.1,2.09-.18,3.14-.23.89-.05,1.77-.07,2.66-.07h17.47Z"/>
</svg>