<?xml version="1.0" encoding="UTF-8"?>
<svg id="Laag_1" data-name="Laag 1" xmlns="http://www.w3.org/2000/svg" viewBox="0 0 374 534">
  <defs>
    <style>
      .cls-1 {
        stroke-width: 0px;
      }
    </style>
  </defs>
  <path class="cls-1" d="M146.82,123.18c4.38,0,8.73.51,12.96,1.53l-4.8,7.4c-.4-.04-.8-.07-1.21-.1l-24.41-1.64h-.01v-7.19h17.47Z"/>
  <path class="cls-1" d="M174.44,130.37l-4.1,6-6.28-2.23c-.82-.29-1.66-.56-2.5-.8l3.87-6.98c2.01.72,3.97,1.54,5.89,2.48l3.12,1.53Z"/>
  <path class="cls-1" d="M216.74,123.96s.06-.01.09-.02l-2.64,8.78c-.49.12-.99.24-1.49.38-.3.08-.59.17-.89.26l-.13.04c-.47.14-.93.3-1.39.46l-6.27,2.23-4.1-6,3.11-1.53c4.34-2.13,8.97-3.68,13.71-4.6h0Z"/>
  <path class="cls-1" d="M245,122.91v7.18l-24.42,1.64c-.24.02-.48.04-.72.06-.19.02-.39.04-.58.06l2.45-8.64c1.05-.1,2.09-.18,3.14-.23.89-.05,1.77-.07,2.66-.07h17.47Z"/>
</svg>